ply
format ascii 1.0
element vertex 891
property float x
property float y
property float z
end_header
107.64832305908203 9.447998046875 51.06418991088867
107.64832305908203 9.447998046875 51.06418991088867
109.32803344726562 -5.4387407302856445 51.883155822753906
106.33614349365234 20.312255859375 50.479042053222656
109.04712677001953 -6.150368690490723 51.78035354614258
-7.28106164932251 16.18194580078125 50.46599578857422
107.29169464111328 5.805882453918457 51.02387237548828
-6.220326900482178 -8.123760223388672 50.37094497680664
-6.220326900482178 -8.123760223388672 50.37094497680664
110.3983383178711 -16.767963409423828 52.51528549194336
-5.524377822875977 1.8389948606491089 49.93751907348633
-5.365368366241455 -9.312289237976074 50.086612701416016
-5.26823616027832 9.862537384033203 50.321311950683594
-5.227444648742676 -1.1055995225906372 50.2393798828125
-5.227444648742676 -1.1055995225906372 50.2393798828125
-5.199112892150879 12.791075706481934 50.25736999511719
-5.187676906585693 14.541491508483887 50.32441329956055
-5.124458312988281 2.245609760284424 50.44126892089844
-5.036495208740234 -7.523797512054443 50.34431838989258
-4.886655807495117 -0.8339926600456238 50.09980773925781
-4.825681686401367 12.002091407775879 50.50608444213867
-4.825681686401367 12.002091407775879 50.50608444213867
-4.757625579833984 7.464618682861328 50.081974029541016
-4.777960777282715 15.906039237976074 50.433292388916016
-4.761227130889893 14.53892707824707 50.30125045776367
-4.761227130889893 14.53892707824707 50.30125045776367
-4.749308109283447 13.706390380859375 50.39194869995117
-4.749308109283447 13.706390380859375 50.39194869995117
-4.741934776306152 0.6447198390960693 50.3191032409668
-4.741934776306152 0.6447198390960693 50.3191032409668
-4.7315592765808105 2.4158036708831787 50.290462493896484
-4.7315592765808105 2.4158036708831787 50.290462493896484
-4.6856369972229 18.09937286376953 50.259517669677734
-4.6681671142578125 12.825736045837402 50.16353225708008
-4.684241771697998 4.421813488006592 50.35383987426758
-4.685520648956299 15.395524024963379 50.390071868896484
-4.616571426391602 5.6044440269470215 50.30785369873047
-4.616571426391602 5.6044440269470215 50.30785369873047
-4.5992937088012695 8.961587905883789 50.34247589111328
-4.57014274597168 8.378506660461426 50.25274658203125
-4.57014274597168 8.378506660461426 50.25274658203125
-4.569084644317627 10.51488971710205 50.317840576171875
-4.569084644317627 10.51488971710205 50.317840576171875
-4.473782539367676 -1.1217002868652344 50.32283401489258
-4.458586692810059 14.111109733581543 50.32820129394531
-4.451129913330078 0.2544576823711395 50.30672073364258
-4.435855865478516 6.062339782714844 50.468257904052734
-4.400846004486084 14.934954643249512 50.240089416503906
-4.400846004486084 14.934954643249512 50.240089416503906
-4.362998962402344 17.130992889404297 49.840538024902344
-4.40280294418335 16.263952255249023 50.314762115478516
-4.40280294418335 16.263952255249023 50.314762115478516
-4.1841511726379395 12.778929710388184 50.03622055053711
-4.172276496887207 13.674983978271484 50.328590393066406
-4.156435966491699 10.917798042297363 50.30733871459961
-4.114504814147949 11.805352210998535 50.15489959716797
-4.114504814147949 11.805352210998535 50.15489959716797
-4.122779369354248 10.020764350891113 50.26774215698242
-4.122779369354248 10.020764350891113 50.26774215698242
-4.121480464935303 14.50711441040039 50.25501251220703
-4.085134029388428 10.644381523132324 50.31663513183594
-4.0609354972839355 17.040008544921875 50.177734375
-4.0609354972839355 17.040008544921875 50.177734375
-3.4329559803009033 17.48428726196289 50.18732833862305
-3.4141685962677 21.279170989990234 50.15139389038086
-3.3564090728759766 20.135995864868164 50.091957092285156
-2.9859116077423096 19.086257934570312 50.10713195800781
-2.923588991165161 18.278352737426758 50.09828186035156
-2.781595468521118 20.276201248168945 49.97154998779297
105.93427276611328 14.570738792419434 50.39958572387695
109.17498016357422 -4.842805862426758 51.956851959228516
109.17498016357422 -4.842805862426758 51.956851959228516
-2.023303270339966 14.607060432434082 50.11929702758789
-1.9668947458267212 11.703448295593262 50.31425094604492
-1.8521488904953003 20.04160499572754 49.90099334716797
-1.8521488904953003 20.04160499572754 49.90099334716797
-1.8137885332107544 15.226129531860352 51.308223724365234
-1.7766985893249512 12.017887115478516 50.271549224853516
-1.5791302919387817 11.380487442016602 50.199623107910156
-1.5620110034942627 10.890193939208984 51.586673736572266
107.25633239746094 10.088690757751465 51.05248260498047
-0.9127307534217834 9.14824104309082 50.286773681640625
-0.8501073122024536 15.99567985534668 50.06797409057617
-0.6467639803886414 -12.498514175415039 52.689903259277344
-0.38039180636405945 14.48587703704834 49.936668395996094
105.72905731201172 19.627931594848633 50.334327697753906
0.303437203168869 18.172256469726562 49.951725006103516
0.5132406949996948 17.51104736328125 49.90810775756836
0.5930733680725098 8.949409484863281 49.98252868652344
0.7936578989028931 17.217384338378906 50.05930709838867
1.119895100593567 12.187724113464355 50.30998992919922
1.2569169998168945 18.780410766601562 49.9284553527832
106.87562561035156 14.689574241638184 50.897769927978516
1.350141167640686 16.401330947875977 50.01262283325195
1.3559857606887817 17.851634979248047 49.9556770324707
1.5747541189193726 18.285505294799805 49.9085807800293
1.8407431840896606 -11.050254821777344 50.72377395629883
1.8378981351852417 9.100334167480469 50.32180404663086
1.900362491607666 11.890877723693848 50.0623664855957
1.8982399702072144 17.4923038482666 49.86913299560547
1.8982399702072144 17.4923038482666 49.86913299560547
2.0091097354888916 18.626562118530273 50.18351745605469
2.0091097354888916 18.626562118530273 50.18351745605469
2.315382242202759 8.587284088134766 50.196815490722656
2.315382242202759 8.587284088134766 50.196815490722656
2.8337512016296387 11.498838424682617 50.255859375
2.883676290512085 10.399127960205078 50.349361419677734
2.9242284297943115 -10.969749450683594 50.90592956542969
2.995772361755371 11.288942337036133 50.36231994628906
108.64409637451172 -5.9306864738464355 51.74855422973633
107.93218994140625 4.064767360687256 51.414302825927734
3.042696237564087 19.368803024291992 49.989418029785156
3.042696237564087 19.368803024291992 49.989418029785156
3.0706984996795654 8.821927070617676 50.22978973388672
3.1962027549743652 -11.414766311645508 51.35984420776367
3.1600184440612793 12.345928192138672 50.093841552734375
3.267359733581543 9.450170516967773 50.24930191040039
3.267359733581543 9.450170516967773 50.24930191040039
3.4936578273773193 11.550714492797852 50.14484405517578
3.684800624847412 15.731889724731445 49.992889404296875
3.7093679904937744 18.1369571685791 49.90522766113281
107.36357116699219 9.573870658874512 51.18812942504883
3.910651206970215 18.1890811920166 50.36247253417969
3.939558267593384 -0.4113406836986542 50.53921127319336
3.939558267593384 -0.4113406836986542 50.53921127319336
3.939558267593384 -0.4113406836986542 50.53921127319336
4.004641532897949 11.251873016357422 50.21306610107422
4.122102737426758 -4.217691898345947 50.49849319458008
4.122102737426758 -4.217691898345947 50.49849319458008
4.136381149291992 17.41312599182129 49.97797393798828
4.279803276062012 7.922811508178711 51.110877990722656
4.34279727935791 8.271350860595703 50.29339599609375
4.380706787109375 10.86767864227295 50.10129165649414
4.458998203277588 9.58358383178711 50.27904510498047
4.600656032562256 7.298426628112793 51.2188720703125
4.582519054412842 0.09966717660427094 50.54692459106445
4.553582668304443 17.272680282592773 50.01716995239258
4.701288223266602 4.100394248962402 50.50263214111328
4.711517810821533 -5.714087009429932 50.34933090209961
4.76931095123291 11.451883316040039 50.42470169067383
4.742366790771484 17.499385833740234 49.87551498413086
4.863765716552734 -3.4321415424346924 50.48646545410156
8.108657836914062 -0.5270900130271912 83.25210571289062
4.86117696762085 16.948657989501953 49.82805252075195
5.13034200668335 9.347396850585938 50.34486389160156
5.2197265625 8.183358192443848 50.34198760986328
5.2949676513671875 3.678457498550415 50.48038101196289
108.87060546875 -5.258913040161133 51.993282318115234
5.3959760665893555 3.5383825302124023 50.436832427978516
8.947846412658691 6.915503025054932 81.99415588378906
5.702176094055176 -4.968010902404785 50.50346374511719
5.702176094055176 -4.968010902404785 50.50346374511719
5.702176094055176 -4.968010902404785 50.50346374511719
5.857561111450195 2.866264820098877 50.51565170288086
6.178502082824707 -3.7609570026397705 50.66227722167969
6.240514755249023 4.227353572845459 50.536678314208984
6.246211051940918 18.709659576416016 50.10335159301758
6.3129963874816895 -4.422946929931641 50.58454895019531
6.5511369705200195 3.274968385696411 50.63479995727539
6.5511369705200195 3.274968385696411 50.63479995727539
6.5511369705200195 3.274968385696411 50.63479995727539
6.5676140785217285 -4.172650337219238 50.62428283691406
107.35115814208984 5.330761909484863 51.27938461303711
6.63651704788208 1.9024909734725952 50.63557434082031
6.63651704788208 1.9024909734725952 50.63557434082031
107.31675720214844 6.860974311828613 51.2828483581543
6.925362586975098 -6.397147178649902 50.45512771606445
7.154966354370117 14.633005142211914 50.10457992553711
7.1910247802734375 5.277646541595459 50.1518669128418
7.757397651672363 2.6459600925445557 50.50829315185547
7.763150691986084 14.44983959197998 50.13645553588867
7.853084087371826 3.8068687915802 50.54178237915039
7.930595397949219 -5.0811004638671875 50.60371780395508
7.930595397949219 -5.0811004638671875 50.60371780395508
8.006157875061035 -3.9510622024536133 50.62451171875
8.006157875061035 -3.9510622024536133 50.62451171875
7.983001232147217 9.572604179382324 50.03114318847656
8.129109382629395 15.87744140625 50.012550354003906
8.169182777404785 13.573877334594727 49.95440673828125
8.431204795837402 8.461607933044434 50.923309326171875
8.363150596618652 15.011651039123535 50.12180709838867
8.363150596618652 15.011651039123535 50.12180709838867
8.363150596618652 15.011651039123535 50.12180709838867
8.495341300964355 0.05445298179984093 50.63914489746094
8.487283706665039 12.622482299804688 50.5762939453125
8.559895515441895 -4.336933135986328 50.65110778808594
8.495384216308594 11.398228645324707 50.18369674682617
8.566274642944336 4.031061172485352 50.50718688964844
8.6119966506958 14.254324913024902 50.49558639526367
8.736217498779297 10.548837661743164 50.18450927734375
8.736217498779297 10.548837661743164 50.18450927734375
107.27985382080078 4.468194484710693 51.327293395996094
8.845362663269043 -0.3719353675842285 50.5252799987793
9.301358222961426 -10.633749008178711 52.94385528564453
8.908346176147461 -5.922530651092529 50.5274543762207
8.908346176147461 -5.922530651092529 50.5274543762207
8.908346176147461 -5.922530651092529 50.5274543762207
106.85092163085938 3.3939619064331055 51.15861129760742
9.11729621887207 7.0995917320251465 50.335079193115234
9.172022819519043 3.60652756690979 50.54426956176758
9.172022819519043 3.60652756690979 50.54426956176758
9.097824096679688 16.136333465576172 50.05067443847656
9.222726821899414 -8.935620307922363 50.621341705322266
9.26187515258789 -3.8240420818328857 50.71503448486328
9.202054023742676 17.08233070373535 50.021366119384766
9.325258255004883 1.9259523153305054 50.609745025634766
9.26982593536377 15.064131736755371 50.05918502807617
9.363633155822754 10.572155952453613 50.26575469970703
9.409651756286621 12.284445762634277 50.317020416259766
9.652216911315918 16.638465881347656 49.93549346923828
9.775761604309082 7.879178047180176 50.521522521972656
9.95750617980957 -6.45134973526001 50.6246223449707
9.927458763122559 15.194886207580566 50.01268005371094
10.082375526428223 -5.050900459289551 50.633506774902344
10.130932807922363 3.703129291534424 50.8303337097168
10.047575950622559 16.852550506591797 50.06366729736328
10.126564025878906 10.610943794250488 50.36448287963867
10.171010971069336 8.556757926940918 50.15316390991211
10.391915321350098 1.6396090984344482 50.62385177612305
10.391915321350098 1.6396090984344482 50.62385177612305
10.365302085876465 11.83663558959961 50.235923767089844
10.42764663696289 17.007600784301758 50.152130126953125
10.471436500549316 15.264251708984375 50.093597412109375
10.486077308654785 14.319462776184082 49.8109130859375
10.486077308654785 14.319462776184082 49.8109130859375
10.76897144317627 10.89783000946045 50.178871154785156
11.070136070251465 -3.5885257720947266 50.57154846191406
11.01169490814209 8.411332130432129 50.261695861816406
10.947243690490723 18.440961837768555 49.94019317626953
11.137935638427734 2.077169179916382 50.49003219604492
11.137396812438965 -5.507388114929199 50.437347412109375
11.159164428710938 3.482048988342285 50.416526794433594
11.159164428710938 3.482048988342285 50.416526794433594
11.235204696655273 -6.219196796417236 50.617271423339844
11.386435508728027 18.87110137939453 50.201499938964844
11.655132293701172 -6.711437225341797 50.591796875
11.704412460327148 -5.736204147338867 50.648162841796875
11.587746620178223 15.23302936553955 50.01089096069336
11.659553527832031 17.341020584106445 50.0910530090332
11.72000503540039 9.830792427062988 50.14822769165039
11.87132740020752 20.1695556640625 49.99861526489258
12.004332542419434 14.773937225341797 50.2555046081543
12.07996654510498 15.25496768951416 50.09889221191406
12.140721321105957 0.6633793711662292 50.20263671875
12.140721321105957 0.6633793711662292 50.20263671875
12.275090217590332 0.0862368494272232 50.538963317871094
12.275090217590332 0.0862368494272232 50.538963317871094
12.485738754272461 2.6259028911590576 51.17717742919922
12.242044448852539 8.990662574768066 50.0340690612793
12.35129451751709 1.2680203914642334 50.476966857910156
12.616377830505371 -3.5420081615448 50.89994812011719
12.509492874145508 -0.35739120841026306 49.89592742919922
12.574726104736328 16.84597396850586 49.93788528442383
12.863299369812012 0.7229544520378113 50.40486526489258
12.803840637207031 13.795998573303223 50.11661911010742
13.183294296264648 -5.080665588378906 50.32785415649414
13.129364967346191 9.211212158203125 50.07355880737305
13.270929336547852 -5.093293190002441 50.56836700439453
13.270929336547852 -5.093293190002441 50.56836700439453
13.270929336547852 -5.093293190002441 50.56836700439453
13.270929336547852 -5.093293190002441 50.56836700439453
13.20047378540039 13.676939010620117 49.96932601928711
13.281750679016113 14.021201133728027 49.93054962158203
13.302217483520508 16.50332260131836 49.970890045166016
106.94547271728516 6.1522135734558105 51.23557662963867
13.623482704162598 0.36335718631744385 50.44814682006836
13.519168853759766 15.471263885498047 50.019309997558594
13.616630554199219 3.528597593307495 50.275856018066406
13.6950044631958 -3.6496987342834473 50.48516845703125
13.70082950592041 0.9359592199325562 50.45292663574219
13.77491283416748 -4.097890377044678 50.60218048095703
13.72728443145752 10.666740417480469 50.08732986450195
13.70878791809082 10.582921028137207 49.842288970947266
13.899288177490234 -4.562132835388184 50.471031188964844
13.899288177490234 -4.562132835388184 50.471031188964844
13.853736877441406 14.119744300842285 49.86565017700195
14.092501640319824 -4.295388698577881 50.52110290527344
14.092501640319824 -4.295388698577881 50.52110290527344
14.09153938293457 1.472497820854187 50.314937591552734
14.09153938293457 1.472497820854187 50.314937591552734
14.123919486999512 3.4437003135681152 50.4017333984375
14.133803367614746 12.889440536499023 50.418540954589844
14.147951126098633 0.5955408811569214 50.42410659790039
14.147951126098633 0.5955408811569214 50.42410659790039
14.236248016357422 1.029247522354126 50.256805419921875
14.236248016357422 1.029247522354126 50.256805419921875
14.288335800170898 10.93736743927002 50.25081253051758
14.246329307556152 8.934304237365723 50.02478790283203
14.246329307556152 8.934304237365723 50.02478790283203
14.518667221069336 17.89168930053711 49.94057846069336
14.633042335510254 11.32912540435791 50.233001708984375
14.577845573425293 13.28904914855957 50.01457977294922
106.94547271728516 6.1522135734558105 51.23557662963867
14.67456340789795 15.86050796508789 49.964229583740234
14.701683044433594 15.314263343811035 49.92801284790039
14.836267471313477 20.10669708251953 50.049652099609375
14.836267471313477 20.10669708251953 50.049652099609375
14.995196342468262 14.835288047790527 49.9589729309082
15.217803955078125 9.073273658752441 50.36232376098633
15.171846389770508 9.641036987304688 50.006202697753906
15.242388725280762 17.175315856933594 50.0418701171875
15.359993934631348 13.983118057250977 49.90699005126953
15.67629337310791 16.4354248046875 49.92413330078125
15.898384094238281 15.887885093688965 49.927452087402344
16.17984390258789 18.17656707763672 49.937435150146484
16.378145217895508 15.648937225341797 49.93385696411133
16.489805221557617 10.934946060180664 50.072303771972656
16.478561401367188 15.09399127960205 49.903804779052734
16.72327995300293 17.722429275512695 49.88408279418945
16.818347930908203 9.76793098449707 49.86288833618164
16.818347930908203 9.76793098449707 49.86288833618164
17.38641929626465 6.538751125335693 50.935691833496094
17.38641929626465 6.538751125335693 50.935691833496094
17.225173950195312 20.0221004486084 49.992679595947266
17.345325469970703 17.45336151123047 49.891868591308594
17.798681259155273 15.740177154541016 49.86216735839844
17.833147048950195 11.196348190307617 49.95257568359375
18.118356704711914 20.022171020507812 49.946292877197266
18.272830963134766 11.979989051818848 50.109859466552734
18.238426208496094 18.253877639770508 49.80800247192383
18.987699508666992 19.941648483276367 49.894676208496094
106.26536560058594 14.471343040466309 50.98977279663086
105.25965881347656 20.48969268798828 50.57192611694336
106.6397705078125 7.700382709503174 51.24039077758789
107.71307373046875 -4.251132488250732 51.76266860961914
21.963613510131836 21.383150100708008 50.4854621887207
21.963613510131836 21.383150100708008 50.4854621887207
104.9413833618164 19.144643783569336 50.46992874145508
22.04708480834961 18.84796142578125 50.26702117919922
104.9413833618164 19.144643783569336 50.46992874145508
22.59893226623535 10.676166534423828 50.41140365600586
22.536563873291016 18.30795669555664 50.14459228515625
106.16238403320312 10.662248611450195 51.069976806640625
106.16238403320312 10.662248611450195 51.069976806640625
105.28652954101562 19.840085983276367 50.66072082519531
107.4735107421875 -1.5806434154510498 51.73051834106445
23.05238151550293 21.00019073486328 49.93208312988281
23.863487243652344 6.323883533477783 51.222713470458984
105.89512634277344 13.604068756103516 50.98597717285156
23.915054321289062 20.881851196289062 51.035308837890625
107.7232437133789 -5.144238471984863 51.86730194091797
24.779483795166016 17.31435203552246 51.8670768737793
106.0705795288086 3.4182872772216797 51.096622467041016
24.802959442138672 18.65361976623535 51.59380340576172
25.095914840698242 19.564830780029297 52.015769958496094
24.390792846679688 11.025384902954102 50.22126388549805
25.38599395751953 18.147293090820312 52.173912048339844
25.588075637817383 19.84115982055664 52.408172607421875
26.798429489135742 -9.185758590698242 54.86114501953125
26.606714248657227 9.528087615966797 53.621639251708984
27.67302131652832 2.779106855392456 54.97291946411133
27.318199157714844 18.311628341674805 54.09978485107422
106.01280212402344 6.876486778259277 51.09828186035156
107.53874206542969 -2.2603657245635986 51.834476470947266
27.84223175048828 11.688212394714355 54.964115142822266
27.567646026611328 16.86185646057129 54.3726921081543
28.23196029663086 17.831214904785156 55.38380432128906
28.28412437438965 18.474721908569336 55.329429626464844
28.28412437438965 18.474721908569336 55.329429626464844
28.705909729003906 -1.6148635149002075 55.657405853271484
29.406641006469727 12.458022117614746 56.968353271484375
29.411279678344727 16.96063995361328 56.48797607421875
30.308414459228516 13.025809288024902 57.59213638305664
30.252817153930664 13.998026847839355 57.47983169555664
30.292619705200195 16.747159957885742 57.45259475708008
105.00237274169922 20.988788604736328 50.63132858276367
105.6563720703125 11.549365043640137 50.9913330078125
106.31893157958984 6.33267879486084 51.324893951416016
105.84764862060547 11.790773391723633 51.10120391845703
106.36646270751953 10.273117065429688 51.37336349487305
107.5477294921875 -6.4170145988464355 51.949825286865234
106.98241424560547 -0.15929561853408813 51.68260955810547
105.72301483154297 12.667193412780762 51.07469940185547
106.0345230102539 8.823263168334961 51.229454040527344
106.0345230102539 8.823263168334961 51.229454040527344
105.88805389404297 5.695417404174805 51.18121337890625
106.28656005859375 7.4319167137146 51.37876510620117
105.92278289794922 10.978558540344238 51.208152770996094
105.92278289794922 10.978558540344238 51.208152770996094
105.80601501464844 9.998628616333008 51.16743850708008
105.80601501464844 9.998628616333008 51.16743850708008
105.22758483886719 14.549880981445312 50.892791748046875
105.09938049316406 15.343568801879883 50.833656311035156
105.91519927978516 9.480210304260254 51.265403747558594
108.41059875488281 -16.024330139160156 52.48451614379883
105.42991638183594 14.078240394592285 51.06727600097656
105.3538818359375 19.48174285888672 51.03948211669922
105.87579345703125 6.658993244171143 51.326168060302734
104.75595092773438 16.423973083496094 50.7945671081543
106.6316146850586 -3.7477691173553467 51.71776580810547
107.03755950927734 -4.728196144104004 51.922035217285156
106.0157470703125 5.294633865356445 51.426048278808594
106.24608612060547 2.6501004695892334 51.539920806884766
106.45303344726562 2.1897366046905518 51.662010192871094
105.15337371826172 13.513628005981445 51.04083251953125
105.3635482788086 7.411657810211182 51.149051666259766
53.64783477783203 24.37149429321289 86.63351440429688
105.7219009399414 8.973978042602539 51.334407806396484
106.8208999633789 -5.608187198638916 51.87472915649414
105.30377960205078 10.850290298461914 51.16240692138672
104.39336395263672 19.95907974243164 50.72417068481445
104.70755004882812 14.604031562805176 50.901432037353516
104.88690948486328 12.62412166595459 51.00623321533203
104.81290435791016 15.199655532836914 50.991668701171875
104.81290435791016 15.199655532836914 50.991668701171875
106.47954559326172 -6.806239604949951 51.80891799926758
107.84013366699219 -15.802909851074219 52.509090423583984
107.9698257446289 -14.671077728271484 52.601715087890625
107.9698257446289 -14.671077728271484 52.601715087890625
105.43916320800781 9.986885070800781 51.367942810058594
104.7790756225586 15.884194374084473 51.046810150146484
104.75225830078125 13.749552726745605 51.05997085571289
104.84329986572266 11.403133392333984 51.1074104309082
104.59339141845703 14.259891510009766 51.00129318237305
104.59339141845703 14.259891510009766 51.00129318237305
104.59339141845703 14.259891510009766 51.00129318237305
105.27699279785156 8.311430931091309 51.353633880615234
107.32622528076172 -12.95329761505127 52.39130401611328
105.20863342285156 6.660310745239258 51.35679626464844
104.68479919433594 10.563865661621094 51.1038703918457
104.00980377197266 18.949926376342773 50.77748107910156
106.97736358642578 4.139510154724121 52.23282241821289
103.66917419433594 20.30938148498535 50.643829345703125
106.13398742675781 -3.0251896381378174 51.8504753112793
106.50245666503906 -5.205684661865234 52.04083251953125
106.50245666503906 -5.205684661865234 52.04083251953125
106.1748046875 -1.601659893989563 51.91902160644531
102.75391387939453 20.814411163330078 50.275203704833984
102.75391387939453 20.814411163330078 50.275203704833984
106.2476577758789 -0.31283238530158997 51.98824691772461
106.2476577758789 -0.31283238530158997 51.98824691772461
104.94029998779297 7.6318535804748535 51.35190200805664
104.04924774169922 15.862587928771973 50.915924072265625
107.31477355957031 -13.640298843383789 52.576988220214844
107.31477355957031 -13.640298843383789 52.576988220214844
104.66922760009766 10.306174278259277 51.29832458496094
104.09827423095703 14.299212455749512 51.03466796875
104.19564056396484 11.269192695617676 51.12311553955078
103.92671966552734 14.861039161682129 51.06120300292969
104.42105102539062 13.599571228027344 51.31953811645508
104.42893981933594 8.374067306518555 51.348506927490234
103.81944274902344 11.989053726196289 51.10219955444336
63.05104446411133 -10.686933517456055 88.12942504882812
104.20823669433594 11.298124313354492 51.3054313659668
103.6769790649414 15.979475021362305 51.07599639892578
63.37953186035156 -8.053535461425781 88.0779800415039
103.90323638916016 12.57158088684082 51.25116729736328
105.49649047851562 -1.6668777465820312 52.048526763916016
103.89672088623047 14.002287864685059 51.26091003417969
103.89672088623047 14.002287864685059 51.26091003417969
103.28279113769531 14.627846717834473 50.980743408203125
103.40091705322266 19.252412796020508 51.04709243774414
102.7868881225586 21.059988021850586 50.749332427978516
103.25751495361328 15.240158081054688 50.988685607910156
105.5560073852539 -2.430138349533081 52.14453887939453
103.95985412597656 7.6445536613464355 51.37418746948242
105.61477661132812 -7.066890716552734 52.22344207763672
105.61477661132812 -7.066890716552734 52.22344207763672
105.17827606201172 -0.9242453575134277 52.01332092285156
103.33736419677734 15.03525161743164 51.23735046386719
102.41548156738281 20.511661529541016 50.79182434082031
104.11045837402344 4.242135047912598 51.63565444946289
103.38443756103516 13.775185585021973 51.28461456298828
102.31454467773438 19.82436180114746 50.80183410644531
102.00972747802734 20.977502822875977 50.65554428100586
102.95883178710938 12.670716285705566 51.1288948059082
104.92194366455078 5.256721019744873 52.13397216796875
104.50424194335938 2.2507238388061523 51.94792175292969
103.44002532958984 15.729509353637695 51.47771453857422
65.85115814208984 24.460569381713867 87.69210052490234
106.87397003173828 -16.729307174682617 53.18947219848633
103.2493667602539 11.887338638305664 51.38819122314453
102.8705062866211 13.565658569335938 51.21421432495117
103.87081909179688 3.8994300365448 51.75101852416992
103.36188507080078 7.077480792999268 51.52949905395508
102.928955078125 12.58769702911377 51.394168853759766
103.17597198486328 7.862478733062744 51.57681655883789
101.92902374267578 21.10836410522461 51.0035400390625
103.74609375 2.135321617126465 51.91502380371094
106.93644714355469 -12.094501495361328 53.55189514160156
102.54480743408203 13.086413383483887 51.36770248413086
103.07129669189453 18.870800018310547 51.66564178466797
103.06558990478516 6.303802967071533 51.669071197509766
101.37191772460938 20.086471557617188 50.82064437866211
101.37191772460938 20.086471557617188 50.82064437866211
102.27882385253906 14.561161994934082 51.28049087524414
101.40763854980469 19.25332260131836 50.8674430847168
102.23619079589844 11.853711128234863 51.468196868896484
102.26643371582031 13.881545066833496 51.52691650390625
102.69879913330078 7.809778690338135 51.75544357299805
102.03662109375 14.967823028564453 51.48700714111328
107.44671630859375 -8.888118743896484 54.32606506347656
106.45228576660156 -10.541565895080566 53.867366790771484
101.15656280517578 21.325115203857422 51.24604034423828
102.06034851074219 13.27945613861084 51.705116271972656
102.34590911865234 12.436415672302246 51.85490417480469
105.65702819824219 -0.3151015043258667 53.559043884277344
107.59178924560547 -9.945541381835938 54.545509338378906
101.43324279785156 14.730572700500488 51.447818756103516
103.31946563720703 10.820266723632812 52.41841125488281
104.96668243408203 3.836923360824585 53.27412796020508
102.51959228515625 13.057221412658691 52.16866683959961
101.78866577148438 15.333270072937012 51.84248352050781
70.74639129638672 10.874759674072266 88.5507583618164
105.20743560791016 4.183415412902832 53.619300842285156
103.13313293457031 10.570372581481934 52.5733642578125
106.73509979248047 2.2302587032318115 54.41236877441406
102.33038330078125 14.76486587524414 52.175655364990234
105.62869262695312 3.4791057109832764 53.886131286621094
100.79303741455078 20.944856643676758 51.4797477722168
109.18258666992188 -6.351078510284424 55.783565521240234
108.26602935791016 -4.548194885253906 55.389015197753906
108.77356719970703 -7.899133205413818 55.73725128173828
109.71064758300781 -3.8940160274505615 56.24024963378906
101.65479278564453 14.282439231872559 52.11139678955078
102.58589935302734 15.942869186401367 52.608036041259766
102.58589935302734 15.942869186401367 52.608036041259766
104.00875854492188 10.663485527038574 53.394222259521484
107.69593048095703 3.905198812484741 55.30405807495117
110.40037536621094 -6.8867340087890625 56.74079895019531
103.13320922851562 14.133352279663086 53.034603118896484
110.34959411621094 -6.298366069793701 56.75540542602539
107.73619079589844 3.475431442260742 55.46979522705078
108.36609649658203 1.4141792058944702 55.805015563964844
109.41007995605469 -0.12159651517868042 56.37971496582031
101.06678009033203 20.852519989013672 52.091835021972656
104.14071655273438 11.055771827697754 53.69576644897461
107.14169311523438 0.4890841245651245 55.269012451171875
106.30055236816406 1.0558412075042725 54.83607482910156
102.76212310791016 13.527626991271973 53.15464782714844
74.54862213134766 11.332923889160156 87.57029724121094
103.3747787475586 14.025870323181152 53.56663131713867
102.8662109375 20.72319221496582 53.31980895996094
113.45854187011719 -7.70534086227417 58.91505813598633
113.45854187011719 -7.70534086227417 58.91505813598633
110.7884521484375 -4.240973949432373 57.53707504272461
109.89568328857422 -5.421664237976074 57.07513427734375
105.08501434326172 12.610940933227539 54.59827423095703
105.29137420654297 13.446084976196289 54.715721130371094
105.29137420654297 13.446084976196289 54.715721130371094
112.32359313964844 -11.724405288696289 58.44102478027344
112.0352783203125 -10.45152759552002 58.3029899597168
112.24800872802734 -9.04966926574707 58.41579818725586
104.74588012695312 15.937000274658203 54.51413345336914
111.89790344238281 -6.627789497375488 58.2384147644043
112.87329864501953 -16.77372169494629 58.74752426147461
107.6842269897461 3.899238109588623 56.09977340698242
111.84478759765625 -8.02699089050293 58.328277587890625
111.8194808959961 -7.169517517089844 58.33687210083008
103.78804779052734 21.051088333129883 54.177284240722656
111.63982391357422 -6.224660873413086 58.32021713256836
106.03656768798828 13.863166809082031 55.44091796875
110.92354583740234 0.16733446717262268 58.020721435546875
111.28722381591797 -5.127890586853027 58.21720886230469
107.52509307861328 7.363697528839111 56.26171875
112.87313079833984 -9.924065589904785 59.133113861083984
113.17719268798828 4.405412673950195 59.38179016113281
109.58661651611328 4.5602240562438965 57.721961975097656
68.5854263305664 22.20724105834961 70.56327056884766
111.9520263671875 3.4086244106292725 59.03356170654297
108.69673919677734 12.747760772705078 57.34328842163086
70.0489273071289 19.259782791137695 70.40208435058594
111.36631774902344 -0.3550759255886078 58.76108932495117
70.95935821533203 6.104846477508545 70.63558959960938
71.6019058227539 6.416153430938721 70.96553039550781
110.82391357421875 6.882994651794434 58.684722900390625
70.74295806884766 18.13818359375 69.53366088867188
72.38763427734375 6.989367961883545 70.97451782226562
71.42947387695312 19.928911209106445 69.94833374023438
71.72886657714844 21.138771057128906 70.20340728759766
71.68317413330078 18.652828216552734 70.15251159667969
109.75015258789062 13.79209041595459 58.203125
73.16461944580078 11.349644660949707 71.02628326416016
73.57435607910156 -1.1500149965286255 71.37972259521484
73.57435607910156 -1.1500149965286255 71.37972259521484
73.46199035644531 6.560750484466553 71.20793914794922
107.29689025878906 21.080280303955078 56.93645095825195
73.0113296508789 6.492828845977783 70.69967651367188
109.27523803710938 15.017888069152832 58.08700942993164
73.01976776123047 15.574434280395508 70.44306945800781
73.01976776123047 15.574434280395508 70.44306945800781
72.7219467163086 19.123682022094727 70.13285827636719
108.11213684082031 20.86307144165039 57.57280349731445
73.91577911376953 7.2146315574646 70.53264617919922
74.09721374511719 9.909046173095703 70.64501190185547
108.16101837158203 17.88077163696289 58.39995193481445
74.89042663574219 14.608205795288086 70.15165710449219
74.89042663574219 14.608205795288086 70.15165710449219
74.92692565917969 20.495269775390625 69.9747314453125
77.1278305053711 0.3521747291088104 71.63609313964844
75.31037139892578 16.90752410888672 69.84312438964844
75.31037139892578 16.90752410888672 69.84312438964844
77.89471435546875 -1.1833975315093994 71.29312896728516
77.89471435546875 -1.1833975315093994 71.29312896728516
77.6443099975586 7.114987373352051 70.92615509033203
78.49431610107422 -0.38912302255630493 71.4945068359375
78.7779541015625 -1.425377607345581 71.59471893310547
77.39411163330078 21.85271644592285 70.30340576171875
77.39411163330078 21.85271644592285 70.30340576171875
77.39411163330078 21.85271644592285 70.30340576171875
79.13103485107422 -1.3944896459579468 71.29377746582031
79.13103485107422 -1.3944896459579468 71.29377746582031
79.18989562988281 -0.2346353977918625 71.2718505859375
79.18989562988281 -0.2346353977918625 71.2718505859375
79.44059753417969 -0.8363583087921143 71.40863037109375
79.7606201171875 6.726278781890869 71.21096801757812
78.89202880859375 13.81446361541748 70.37287902832031
79.08824920654297 12.916716575622559 70.54055786132812
79.08824920654297 12.916716575622559 70.54055786132812
78.44996643066406 17.570327758789062 69.9454345703125
102.35713195800781 21.19695472717285 57.72621154785156
78.87042236328125 15.335210800170898 70.31175231933594
78.52606201171875 21.57809829711914 69.90473937988281
80.23746490478516 -1.6224702596664429 71.42865753173828
80.11329650878906 8.649656295776367 71.14163208007812
79.48518371582031 13.37544059753418 70.52787017822266
80.51599884033203 6.526498794555664 71.43428039550781
79.1939697265625 15.749610900878906 70.24474334716797
78.92948150634766 18.10506248474121 70.00707244873047
80.66522216796875 -0.2866005301475525 71.38616180419922
80.89146423339844 6.093173980712891 71.45828247070312
80.89146423339844 6.093173980712891 71.45828247070312
82.27019500732422 -1.3932479619979858 71.74964141845703
149.07803344726562 14.931405067443848 87.77357482910156
82.00826263427734 -0.306699275970459 71.44058227539062
81.43587493896484 9.963050842285156 70.75048065185547
82.40573120117188 -1.9030264616012573 71.58736419677734
81.08821105957031 18.51305389404297 70.16706085205078
82.46806335449219 4.715001583099365 71.3068618774414
81.65973663330078 22.17226791381836 70.09473419189453
82.80657196044922 21.1171875 71.04208374023438
81.63858032226562 21.48499870300293 69.93684387207031
81.63858032226562 21.48499870300293 69.93684387207031
83.38127136230469 -0.2839858829975128 71.40924835205078
83.41175079345703 -1.4466115236282349 71.43279266357422
83.958251953125 5.736513137817383 71.80884552001953
83.29268646240234 4.822895050048828 71.19770812988281
83.33251190185547 17.882749557495117 71.2227554321289
84.02425384521484 -0.42224255204200745 71.60420989990234
84.04647827148438 -1.2421238422393799 71.62228393554688
74.49212646484375 18.071008682250977 63.46718215942383
84.18017578125 -0.8204283714294434 71.42247009277344
84.42413330078125 -1.4550615549087524 71.57039642333984
83.19668579101562 19.928171157836914 70.10842895507812
83.53106689453125 16.847949981689453 70.28380584716797
85.10234069824219 -0.28926992416381836 71.5380859375
85.21420288085938 -1.456265926361084 71.62789916992188
85.0350570678711 -1.3066143989562988 70.9798583984375
86.38380432128906 -0.6973305344581604 71.65371704101562
86.27970123291016 -0.34187832474708557 71.38742065429688
86.57169342041016 -1.4814813137054443 71.61922454833984
86.57169342041016 -1.4814813137054443 71.61922454833984
138.032470703125 22.905622482299805 86.47347259521484
86.28443145751953 5.782025337219238 71.08892059326172
86.28443145751953 5.782025337219238 71.08892059326172
88.20073699951172 15.464391708374023 70.6971435546875
88.20073699951172 15.464391708374023 70.6971435546875
89.76699829101562 5.625992774963379 71.4647445678711
90.6971435546875 -1.2951775789260864 72.0777359008789
90.6971435546875 -1.2951775789260864 72.0777359008789
90.05718994140625 12.320075035095215 71.50651550292969
90.13264465332031 5.361605167388916 71.1808090209961
89.1617202758789 21.63412094116211 70.16500854492188
89.82716369628906 13.028867721557617 70.61921691894531
89.46630859375 19.373260498046875 70.31851959228516
123.90734100341797 22.947059631347656 86.88887786865234
90.80317687988281 5.590427398681641 71.2650375366211
123.16468048095703 24.163349151611328 87.461669921875
89.94569396972656 17.22439956665039 70.52528381347656
90.81214904785156 17.963977813720703 70.54271697998047
89.8974609375 15.210007667541504 69.75118255615234
92.51322937011719 9.53145694732666 71.53983306884766
108.11830139160156 5.594419956207275 51.226627349853516
108.14360046386719 12.164992332458496 51.20120620727539
108.15647888183594 7.227192401885986 51.16194534301758
108.65391540527344 6.216725826263428 51.36530685424805
108.03996276855469 8.813896179199219 51.06770324707031
108.03996276855469 8.813896179199219 51.06770324707031
108.43881225585938 6.705357551574707 51.25551986694336
108.43881225585938 6.705357551574707 51.25551986694336
109.0675048828125 -2.572995662689209 51.550235748291016
108.0290756225586 13.572385787963867 51.0166015625
107.68213653564453 19.916362762451172 50.816287994384766
107.63579559326172 18.381851196289062 50.77919387817383
108.75296783447266 5.015626907348633 51.263893127441406
106.92182159423828 20.434711456298828 50.39415740966797
108.77385711669922 10.138446807861328 51.26415252685547
108.61165618896484 14.79127025604248 51.15568923950195
108.2721939086914 11.776225090026855 50.98910903930664
108.78487396240234 7.493269920349121 51.177879333496094
108.7919921875 8.24719524383545 51.14395523071289
109.0886001586914 5.7729597091674805 51.265174865722656
109.32899475097656 4.359750270843506 51.37808609008789
109.32899475097656 4.359750270843506 51.37808609008789
109.32899475097656 4.359750270843506 51.37808609008789
108.34413146972656 11.279245376586914 50.79911804199219
108.82868957519531 16.770036697387695 51.022117614746094
109.00487518310547 9.591180801391602 51.04887008666992
109.81813049316406 0.2915413975715637 51.427398681640625
108.9238510131836 9.103694915771484 50.992427825927734
109.4016342163086 4.197031497955322 51.15732955932617
108.12752532958984 19.966079711914062 50.55249786376953
108.12752532958984 19.966079711914062 50.55249786376953
109.93144226074219 5.5139851570129395 51.346473693847656
109.00932312011719 19.32709503173828 50.85929870605469
109.93608093261719 6.745021820068359 51.26770782470703
109.93608093261719 6.745021820068359 51.26770782470703
109.54582214355469 9.106531143188477 51.069786071777344
108.26658630371094 20.56773567199707 50.457672119140625
109.6170883178711 3.8220787048339844 51.07945251464844
112.23209381103516 -13.26767349243164 52.29050827026367
111.19534301757812 -4.470808982849121 51.79084396362305
110.00727081298828 8.58486270904541 51.17372512817383
110.1523208618164 5.178628444671631 51.185054779052734
110.16202545166016 9.83217716217041 51.17284393310547
109.39723205566406 18.82332420349121 50.7171745300293
109.39723205566406 18.82332420349121 50.7171745300293
111.70034790039062 -4.928433418273926 51.77436447143555
111.91815185546875 1.0397461652755737 51.861724853515625
110.56788635253906 6.937757968902588 51.20607376098633
110.56788635253906 6.937757968902588 51.20607376098633
110.75527954101562 8.353599548339844 51.25905227661133
111.69380950927734 3.008037567138672 51.69131088256836
114.82246398925781 -16.208620071411133 53.088069915771484
113.48848724365234 -12.854452133178711 52.42274475097656
110.71585083007812 12.155552864074707 51.13170623779297
110.61447143554688 18.756919860839844 51.07101058959961
112.39153289794922 -5.470459938049316 51.87996292114258
112.39153289794922 -5.470459938049316 51.87996292114258
109.72926330566406 20.546785354614258 50.610260009765625
112.65994262695312 -4.157291412353516 51.94181823730469
109.58182525634766 19.83157730102539 50.50387191772461
109.58182525634766 19.83157730102539 50.50387191772461
111.06896209716797 10.266801834106445 51.142398834228516
112.652099609375 -4.972274303436279 51.85063934326172
110.78144836425781 15.302994728088379 50.979942321777344
114.69502258300781 -14.402841567993164 52.77497100830078
112.28544616699219 -3.6023876667022705 51.580448150634766
112.71826934814453 -5.4340057373046875 51.748661041259766
112.09981536865234 13.487164497375488 51.43037796020508
114.29708099365234 -9.82553768157959 52.43874740600586
114.5807113647461 -12.81200122833252 52.504940032958984
111.49370574951172 8.679171562194824 51.07569122314453
111.23737335205078 19.348241806030273 50.94157409667969
113.44877624511719 -4.0680623054504395 51.953651428222656
110.8609848022461 20.47336196899414 50.766807556152344
112.17897033691406 6.004762649536133 51.36812973022461
111.73554229736328 12.809466361999512 51.15460968017578
112.01984405517578 12.368143081665039 51.20380401611328
112.16920471191406 6.729304790496826 51.23142623901367
112.52971649169922 13.658400535583496 51.3776741027832
111.3174057006836 19.73284149169922 50.79524230957031
112.00079345703125 14.091986656188965 51.10546112060547
112.00079345703125 14.091986656188965 51.10546112060547
110.88854217529297 20.850698471069336 50.53892135620117
112.83489227294922 10.13875961303711 51.42314529418945
111.19190216064453 5.2043328285217285 50.661216735839844
115.74308013916016 -15.194870948791504 52.72542953491211
112.22911071777344 15.67972469329834 51.09860610961914
112.22911071777344 15.67972469329834 51.09860610961914
112.89929962158203 9.480073928833008 51.38035202026367
112.42156982421875 17.221576690673828 51.15567398071289
114.85628509521484 -8.435728073120117 52.2609977722168
112.78339385986328 6.194230079650879 51.30490493774414
112.88909149169922 13.927590370178223 51.33103561401367
116.38908386230469 -14.510809898376465 52.91826629638672
112.65017700195312 11.844882011413574 51.21294403076172
113.03948974609375 7.126389980316162 51.382240295410156
113.03948974609375 7.126389980316162 51.382240295410156
112.69172668457031 13.119217872619629 51.188011169433594
114.3901596069336 -4.194006443023682 51.94247055053711
114.3901596069336 -4.194006443023682 51.94247055053711
112.85671997070312 16.9097843170166 51.230201721191406
114.49690246582031 -1.067630648612976 51.96902847290039
111.82003021240234 20.765748977661133 50.73942184448242
114.96868896484375 -6.131531238555908 52.13591766357422
116.23612976074219 -12.7183837890625 52.66428756713867
113.31884002685547 8.133480072021484 51.32331848144531
113.96661376953125 -7.217686176300049 51.575889587402344
113.83011627197266 5.557354927062988 51.49869155883789
113.30123901367188 11.396512985229492 51.25790786743164
115.66024017333984 -8.896888732910156 52.31828689575195
113.14436340332031 18.215055465698242 51.17644119262695
115.032470703125 -4.757142543792725 51.98749923706055
113.6744155883789 10.817049980163574 51.36713790893555
116.8623046875 -13.672157287597656 52.795902252197266
112.4167709350586 20.842988967895508 50.770545959472656
116.48719787597656 -11.980910301208496 52.60976028442383
114.09051513671875 14.743064880371094 51.488197326660156
113.12419891357422 11.965326309204102 51.032386779785156
114.11514282226562 6.016871929168701 51.477901458740234
112.80559539794922 19.877262115478516 50.886016845703125
113.91925811767578 13.065511703491211 51.337982177734375
114.6358642578125 11.693156242370605 51.63344955444336
116.29512786865234 -8.39515209197998 52.36779022216797
116.29512786865234 -8.39515209197998 52.36779022216797
114.1039810180664 15.633939743041992 51.34809112548828
114.58745574951172 6.587120056152344 51.56442642211914
117.56700897216797 -12.697697639465332 52.8934440612793
114.1492919921875 9.58687973022461 51.340145111083984
113.9832534790039 14.082459449768066 51.26538848876953
114.73945617675781 1.3027913570404053 51.56074905395508
117.78782653808594 -13.375244140625 52.931053161621094
114.67398834228516 6.111358642578125 51.50632858276367
114.57218170166016 5.433417320251465 51.39007568359375
114.57218170166016 5.433417320251465 51.39007568359375
115.49868774414062 6.242221355438232 51.75490188598633
114.79058837890625 13.630680084228516 51.335548400878906
115.07498168945312 0.10323607921600342 51.435699462890625
114.91771697998047 9.729327201843262 51.35532760620117
115.82032775878906 7.868035316467285 51.734920501708984
114.86993408203125 11.58658218383789 51.29571533203125
114.86993408203125 11.58658218383789 51.29571533203125
116.212158203125 5.607964515686035 51.867008209228516
115.67577362060547 8.801681518554688 51.57389831542969
114.8934326171875 19.658676147460938 51.213356018066406
114.8934326171875 19.658676147460938 51.213356018066406
115.93150329589844 4.8388752937316895 51.675010681152344
116.13629150390625 6.947772026062012 51.73727798461914
118.977294921875 -12.75245189666748 52.99477767944336
116.2801513671875 18.897119522094727 51.78017807006836
116.064697265625 6.200934410095215 51.67008590698242
114.59721374511719 20.84592628479004 50.935890197753906
115.88080596923828 9.581134796142578 51.4989013671875
116.8330307006836 -1.6825547218322754 51.81770324707031
115.3662338256836 20.475513458251953 51.16603088378906
117.68194580078125 7.773675918579102 52.16585922241211
118.89605712890625 -10.633257865905762 52.69398498535156
116.40315246582031 14.281707763671875 51.555763244628906
120.15210723876953 -12.964606285095215 53.211151123046875
117.32933807373047 2.9684932231903076 51.95928192138672
116.48445129394531 10.482003211975098 51.58137130737305
115.63502502441406 18.865772247314453 51.201805114746094
115.63502502441406 18.865772247314453 51.201805114746094
120.7806625366211 -14.914806365966797 53.476539611816406
118.46257781982422 -2.4724724292755127 52.44768142700195
116.88645935058594 8.45596694946289 51.72117614746094
117.1456069946289 8.947591781616211 51.835662841796875
116.19682312011719 15.931031227111816 51.408042907714844
117.11453247070312 16.0916690826416 51.75229263305664
119.35302734375 -9.955406188964844 52.70717239379883
117.38428497314453 5.355349063873291 51.81500244140625
116.43929290771484 19.235183715820312 51.36308288574219
116.43929290771484 19.235183715820312 51.36308288574219
118.49886322021484 -0.3291650116443634 52.23588180541992
116.97381591796875 12.584152221679688 51.55770492553711
118.78179931640625 -2.2495086193084717 52.34227752685547
118.78179931640625 -2.2495086193084717 52.34227752685547
116.07402801513672 20.836002349853516 51.12040328979492
120.09446716308594 -9.182445526123047 52.88589859008789
118.2532958984375 2.1735036373138428 51.98122024536133
117.20677185058594 21.622758865356445 51.48063278198242
118.68144226074219 6.612852096557617 52.08440399169922
118.12942504882812 13.495059967041016 51.83047103881836
119.82731628417969 -1.2106947898864746 52.57057189941406
119.23816680908203 0.6707677245140076 52.29737091064453
118.44619750976562 9.663701057434082 51.93628692626953
117.46766662597656 20.278425216674805 51.500667572021484
118.61073303222656 11.865818977355957 51.98875427246094
118.85089874267578 10.658587455749512 52.03546905517578
118.86504364013672 12.28699779510498 51.9107551574707
119.0005111694336 11.132349014282227 51.91911697387695
117.8026351928711 20.94536590576172 51.37598419189453
120.62434387207031 -1.6966369152069092 52.60215759277344
119.46912384033203 7.87406587600708 52.04273223876953
122.78801727294922 -12.062567710876465 53.453678131103516
125.60456085205078 -17.809843063354492 54.63837432861328
123.868896484375 -7.803186893463135 53.818809509277344
121.6360855102539 -1.0979381799697876 52.80474090576172
123.13674926757812 -10.3739652633667 53.43671417236328
104.38021087646484 6.503232479095459 53.01990509033203
142.91017150878906 18.06755828857422 86.5826187133789
147.77645874023438 18.76497459411621 87.10691833496094
148.1888427734375 18.60301971435547 86.82884216308594
115.6436538696289 3.648056745529175 51.71284484863281
114.60303497314453 10.57274341583252 51.503902435302734
112.67070770263672 19.81882095336914 51.14784240722656
155.70640563964844 21.32071876525879 87.51825714111328
154.85093688964844 20.528278350830078 87.03690338134766
109.58174133300781 13.80765151977539 51.18693923950195
106.7039566040039 16.619754791259766 50.840126037597656
104.70950317382812 20.3511962890625 54.784236907958984
104.45254516601562 5.355989933013916 51.4710693359375
72.91239929199219 13.462932586669922 87.19316864013672
104.51512908935547 4.781885623931885 51.65950012207031
104.51512908935547 4.781885623931885 51.65950012207031
105.84703826904297 -8.519624710083008 52.3736457824707
107.67780303955078 0.7828406095504761 55.39154815673828
63.777217864990234 23.33308219909668 85.97209930419922
103.8812255859375 4.776183128356934 51.788448333740234
149.04869079589844 19.865373611450195 87.28253936767578
